Coordinates
version=1
nRows=9
nColumns=36
inDegrees=yes

Units are S.I. units (second, meters, Newtons, ...)
If the header above contains a line with 'inDegrees', this indicates whether rotational values are in degrees (yes) or radians (no).

endheader
time	pelvis_tilt	pelvis_list	pelvis_rotation	pelvis_tx	pelvis_ty	pelvis_tz	hip_flexion_r	hip_adduction_r	hip_rotation_r	knee_angle_r	knee_angle_r_beta	ankle_angle_r	subtalar_angle_r	mtp_angle_r	hip_flexion_l	hip_adduction_l	hip_rotation_l	knee_angle_l	knee_angle_l_beta	ankle_angle_l	subtalar_angle_l	mtp_angle_l	lumbar_extension	lumbar_bending	lumbar_rotation	arm_flex_r	arm_add_r	arm_rot_r	elbow_flex_r	pro_sup_r	arm_flex_l	arm_add_l	arm_rot_l	elbow_flex_l	pro_sup_l
     -0.82000000	      0.32085584	     -0.28470144	      0.26293947	     -1.01170387	      1.10794949	     -0.19318363	    -16.04041734	      7.88336888	     -3.53175226	      5.19966613	      0.09075129	     14.20929427	     -6.43397595	     -7.49999987	     26.72099795	      2.11870950	     -4.32796733	      6.08683351	      0.10623529	      3.80441223	     -4.69781021	     -7.49999987	    -12.41044700	      2.54854296	      1.47136140	     -0.83941032	     -5.73489521	    -14.94885034	     35.18356954	    101.95378379	     -1.01541912	     -1.73989260	    -17.18170895	     30.65086707	     99.43938772
     -0.81000000	      0.12014737	     -0.32191990	      0.23816941	     -0.99964389	      1.10595434	     -0.19225676	    -16.32326278	      7.92066323	     -3.13091719	      5.42446795	      0.09467483	     14.30694503	     -6.36292011	     -7.49999987	     27.04824947	      2.11195205	     -3.61613105	      6.42683473	      0.11216943	      3.47850972	     -5.70597833	     -7.49999987	    -12.09383512	      2.42502532	      1.42873262	     -1.08323524	     -5.62053334	    -14.82783263	     35.17810962	    101.76935827	     -1.04503732	     -1.81887441	    -17.02148140	     30.56909519	     99.56843167
     -0.80000000	      0.04319710	     -0.25694366	      0.10512376	     -0.98695074	      1.10482992	     -0.19122164	    -16.65573490	      7.79639694	     -2.85713591	      5.86158681	      0.10230399	     14.22202485	     -6.26097157	     -7.49999987	     27.16450010	      2.13218655	     -3.34764354	      6.89327423	      0.12031033	      3.50136597	     -5.91514514	     -7.49999987	    -11.92748465	      2.13943951	      1.42429628	     -1.31196122	     -5.43230000	    -14.76761523	     35.16546442	    101.62806105	     -1.14951114	     -1.91278287	    -17.02321236	     30.57832923	     99.47497684
     -0.79000000	     -0.06727913	     -0.22472765	     -0.02684889	     -0.97381661	      1.10425812	     -0.19052288	    -16.89190007	      7.68659171	     -2.62082810	      6.43634214	      0.11233536	     13.78401150	     -6.65073564	     -7.49999987	     27.28000104	      2.18958500	     -2.36150160	      7.49138795	      0.13074939	      2.93192495	     -7.54915233	     -7.49999987	    -11.60976717	      1.91265394	      1.51970551	     -1.58206462	     -5.32950414	    -14.55091911	     34.92108337	    101.41145556	     -1.24254395	     -1.94758964	    -16.94724225	     30.40519704	     99.47335811
     -0.78000000	     -0.16238412	     -0.13842517	     -0.25401078	     -0.96030450	      1.10439820	     -0.18987096	    -17.07162477	      7.46577227	     -2.49084984	      7.18396264	      0.12538380	     13.01436123	     -7.12593739	     -7.49999987	     27.28511426	      2.25791870	     -1.71166831	      8.14912063	      0.14222899	      2.45441198	     -8.73645289	     -7.49999987	    -11.30228896	      1.61296857	      1.50365039	     -1.80225742	     -5.18197350	    -14.27251824	     34.72783710	    101.15856958	     -1.47726815	     -2.02990444	    -16.92447747	     30.17934957	     99.48192594
     -0.77000000	     -0.17437362	      0.01036690	     -0.55388313	     -0.94665364	      1.10519694	     -0.18920988	    -17.26858953	      7.11889935	     -2.68467051	      8.08434829	      0.14109850	     12.32911954	     -7.09743696	     -7.49999987	     27.14456098	      2.33227183	     -1.59014433	      8.92140944	      0.15570797	      2.45664008	     -8.98003731	     -7.49999987	    -11.10154633	      1.24510582	      1.55687325	     -2.10727159	     -4.98774138	    -14.19207489	     34.70139784	    100.92036227	     -1.80532558	     -2.09483841	    -16.95338171	     30.15696205	     99.28815519
     -0.76000000	     -0.15396876	      0.19655926	     -0.86584653	     -0.93302963	      1.10636521	     -0.18864654	    -17.45113857	      6.70111806	     -2.98081373	      9.05900486	      0.15810946	     11.32319911	     -7.17346997	     -7.49999987	     26.90522159	      2.46282243	     -1.41203448	      9.75196212	      0.17020385	      2.33705367	     -9.47621604	     -7.49999987	    -10.92879406	      0.81509687	      1.65985960	     -2.39614054	     -4.79262081	    -14.08241478	     34.58924287	    100.68739958	     -2.13314218	     -2.16415367	    -17.00112529	     30.07452092	     99.09523510
     -0.75000000	     -0.02472749	      0.36655254	     -1.13933688	     -0.91965801	      1.10775583	     -0.18819524	    -17.74223591	      6.33800701	     -2.84099088	      9.98121942	      0.17420514	      9.54802256	     -8.33934124	     -7.49999987	     26.44802212	      2.69254970	     -0.41095197	     10.50394291	      0.18332839	      1.16560624	    -11.73575529	     -7.49999987	    -10.81269873	      0.41731563	      1.76551398	     -2.50645924	     -4.69427744	    -13.63882496	     33.85050351	    100.47335646	     -2.28337838	     -2.19691689	    -17.18152996	     29.55068349	     99.03125697
     -0.74000000	      0.01786323	      0.57747026	     -1.45308779	     -0.90643033	      1.10882380	     -0.18753871	    -17.74876849	      5.84486769	     -3.24715792	     11.26475441	      0.19660705	      8.41881588	     -8.18772092	     -7.49999987	     26.12779449	      2.85005090	     -0.43855712	     11.49219608	      0.20057666	      1.13167372	    -12.04566555	     -7.49999987	    -10.69005250	     -0.02418646	      1.81184420	     -2.77281774	     -4.48176906	    -13.53458858	     33.80793844	    100.22895669	     -2.67041532	     -2.28215678	    -17.23500568	     29.48723195	     98.82641090
